<svg version="1" xmlns="http://www.w3.org/2000/svg" width="682.667" height="682.667" viewBox="0 0 512.000000 512.000000"><path d="M259.8 41.5c-.1.1-3.4.6-7.3 1-4.4.4-7.9 1.4-9.7 2.7l-2.8 1.9v29.2c0 16.1-.1 45.4-.3 65.2l-.2 36h-56.3c-49.1 0-56.3.2-56.6 1.5-.3.8-.4 7.7-.4 15.2V208H239.9v241.2l-5-.6c-9-1.1-12.3-1.7-20.4-3.7-4.4-1.1-8.7-2.2-9.5-2.4-5.9-1.3-18.4-6.2-29.5-11.6-22.6-11-43.2-27.1-59.8-46.9-4-4.7-7.4-8.7-7.7-9-.3-.3-.9-1.2-1.5-2.1-.5-.8-3.5-5.3-6.6-10-3-4.6-6.4-10-7.4-11.9-11.8-23-16-34.5-20.6-56.5-2.1-10.5-2.4-12.2-3.6-22-1.3-11.2-.7-39.4 1.1-49 .2-1.1.7-4 1.1-6.5.4-2.5.9-5.6 1.2-7 1.5-8.7 9.5-34.3 13.1-41.7 5.3-11.1 9.8-19.9 10.2-20.3.3-.3 1.6-2.5 3-5 1.3-2.5 2.7-5 3.2-5.5.4-.6 4.2-5.7 8.5-11.5 7.9-10.7 23.8-27.5 32.7-34.6 2.8-2.1 5.8-4.7 6.8-5.7 1-.9 2.2-1.7 2.7-1.7s1.1-.3 1.3-.8c.6-1.3 10.3-7.3 21-12.9 2.6-1.4 5.1-2.9 5.4-3.4.3-.5.9-.7 1.2-.5.4.2 1.8-.4 3.1-1.4l2.4-1.8-2.9.4c-1.6.2-5.8.6-9.4.9-3.5.4-10.1 1.5-14.5 2.5-9 2.1-31.2 9.2-36.5 11.8-1.9.9-3.8 1.5-4.2 1.4-.5-.1-.8.3-.8.8 0 .6-.6 1-1.3 1-1.8 0-14.8 8.2-24.2 15.4-10.8 8.1-31.6 29.2-39.3 39.6-3.4 4.7-6.6 9-7.1 9.7-.6.6-3.3 5.1-6 10-2.8 4.8-5.5 9.3-6.1 10-.5.7-1 1.9-1 2.8 0 .8-.5 1.5-1.2 1.5-.6 0-.9.3-.5.6.3.4-.6 3-2 5.8-2.2 4.3-8.6 21.8-9.2 25.1-.1.5-.6 2.8-1.2 5-1.3 4.5-1.9 7.6-2.4 12-.2 1.6-.9 5.5-1.5 8.5-1.5 7.1-2.2 43.8-1 51 .5 3 1.1 7.1 1.4 9 1 6.6 1.7 10.5 2.3 13 1 4.1 1.1 4.4 1.7 7 .3 1.4 1 4.3 1.6 6.5.6 2.2 1.2 4.4 1.3 5 .2.5.8 2 1.5 3.2.7 1.2 1.2 2.7 1.2 3.3 0 1.2 7.4 18.2 9.1 21 .5.8 1.5 2.6 2.2 4 6.4 13.2 20.4 31.7 35.2 46.5 13.6 13.6 14.8 14.7 26.5 23.2 4.7 3.5 9 6.6 9.5 7 5.4 4.2 25.1 14.8 26.4 14.3.2-.1.7.2 1 .7.8 1.2 11.3 6.1 17.8 8.4 2.9.9 6.7 2.4 8.5 3.2 3.7 1.6 26.6 8.2 32.3 9.2 1.1.2 4.1.9 6.6 1.4 2.6.6 6.8 1.3 9.4 1.6 2.6.3 5.1.7 5.5 1 .4.2 3.4.7 6.6.9 3.2.3 8.8.8 12.4 1.2 3.6.4 14.9.7 25.1.7h18.5l-2.2 4.6c-6 12-12.4 26.3-12.8 28.7-.4 2 .2 3.4 2.4 5.5 3.5 3.6 6.7 3.7 13 .5 2.7-1.3 5.1-2.2 5.4-1.9.3.4.6.1.6-.5 0-.7.9-1.2 2-1.2s2-.5 2-1c0-.6.6-1 1.4-1 .8 0 4.6-1.6 8.5-3.5 3.9-1.9 7.2-3.5 7.5-3.5.3 0 13.8-6.2 27.6-12.8 4.2-2 9.8-6.8 23.7-20.7 10-10 19.9-19 22-20.1 2.1-1 4.6-2.5 5.6-3.3.9-.8 1.7-1 1.7-.5s.5.2 1-.6 1.3-1.5 1.8-1.5 3.2-1.5 6-3.2c2.7-1.8 5.4-3.3 6-3.3.6 0 1.2-.4 1.4-.8.2-.5 3.7-3 7.8-5.7s8-5.4 8.6-5.9c.7-.6 2.6-2.2 4.4-3.6 1.8-1.4 4.5-3.7 6-5.2 1.6-1.6 3.3-2.8 3.9-2.8.6 0 1.1-.7 1.1-1.5s.4-1.5.8-1.5c2.3 0 21.4-20.9 20.8-22.7-.3-.7.1-1 1-.6.9.3 1.4-.1 1.4-1.2 0-.9.5-1.3 1-1 .6.3 1 .1 1-.5s1.4-2.9 3.1-5c1.9-2.3 2.8-4.3 2.4-5.1-.5-.7-.4-1 .2-.6.6.4 3.1-2.6 5.8-7.1 2.5-4.2 5.1-8.4 5.6-9.2.5-.8 2.3-4.4 3.9-8 2.5-5.2 5.8-9.2 16.5-20.1 16.8-16.9 17-17.4 6-28l-5.5-5.4.6-6c.3-3.3.8-7.8 1.1-10 .8-6.9 1-26.7.2-31.9-.4-2.8-1-7.9-1.3-11.3-.5-5.3-2.6-15.7-5.5-27.3-1.9-7.7-7.4-23.6-8.6-25-.7-.8-1.6-2.5-2-3.8-1.1-3.9-5.1-10.2-5.9-9.5-.4.4-.5.1-.2-.7.7-1.9-3.7-9.6-5.2-9.3-.6.2-.9-.3-.7-1 .7-1.6-3.3-7.9-4.5-7.2-.5.3-.7 0-.5-.7.3-.8-.4-2.3-1.5-3.5-1.1-1.2-2-2.6-2-3.1s-1.5-2.4-3.2-4.3c-1.8-1.9-5.3-5.9-7.8-8.9-4.5-5.5-6.2-7.2-17.6-17.8-8.8-8.3-12.3-11.2-13.3-11.2-.5 0-1.1-.3-1.3-.8C418.3 95 404.2 85 403 85c-.5 0-1-.4-1-.8 0-.8-5.1-3.6-5.9-3.2-.2.1-.7-.3-1-.8-1.5-2.2-25.8-14.5-28.8-14.5-.7 0-1.3-.4-1.3-.8 0-.3-.8-.9-1.7-1.2-1-.3-5.8-1.9-10.8-3.7-4.9-1.8-9.4-3.3-10-3.4-.5-.2-3-.9-5.5-1.6-2.5-.8-4.7-1.4-5-1.5-.3 0-1.4-.4-2.5-.8-1.1-.3-3.1-.8-4.5-1.1-1.4-.2-6.8-1.3-12-2.5-9.8-2-14.6-2.8-24-3.7-3-.3-6.8-.7-8.3-1-2.1-.3-2.7-.1-2.1.8.6 1 .4 1-.7.2-1.9-1.4-17.2-4.7-18.1-3.9zm18.8 15c2.7.4 5.6.8 6.4 1 .8.2 3 .7 4.9 1 16.4 2.8 37.9 10.8 54.6 20.3 33 18.9 61.5 49.6 77.9 83.7 4.2 8.8 11.7 27.5 11 27.5-.2 0 .2 1.3 1.1 3 .9 1.6 1.3 3 1 3-.3 0 .1 1.5.9 3.4s1.2 3.7.9 4c-.3.2-.1 1 .3 1.7s.9 2.6 1.1 4.3c.2 1.6.5 4 .8 5.3 1.3 6 2.1 12.4 3.1 22.8.5 5.9.5 25.4-.1 30-.2 2.2-.7 6.7-1 10-.8 9.2-1.6 11.8-4.1 14.2-1.3 1.2-2.4 2.7-2.4 3.3 0 .5-.4 1-1 1-.5 0-1 .7-1 1.6 0 .8-.4 1.2-1 .9-.5-.3-1-.2-1 .4 0 .5.6 1.2 1.3 1.5.6.3.2.3-1 0-1.7-.4-2.3-.1-2.3 1.1 0 1-.5 1.3-1.2.9-.8-.5-.9-.2-.5.9.3.9.3 1.6-.1 1.5-.4-.1-1.5.2-2.4.6-1 .5-30.9 29.9-66.5 65.4-54.9 55-65.1 65.6-67.5 70.4-1.7 3.6-3.5 5.9-4.5 5.9-1 .1-3.5.3-5.5.4-2.1.1-4.1.5-4.5.8-.3.4-1.8.7-3.2.7h-2.6V208.5l57-.5 57-.5V193c0-10.5-.3-14.6-1.2-15-.7-.3-26.2-.5-56.8-.4-30.5 0-55.6-.2-55.6-.5-.1-.3-.2-27.6-.3-60.6-.2-56.6 0-62.5 2.4-61 .4.2 2.9.7 5.6 1zm158.1 243.1c-.3.3-1.2.4-1.9.1-.8-.3-.5-.6.6-.6 1.1-.1 1.7.2 1.3.5zm-.3 2.6c-.3.5-1 .5-1.6.2-.7-.5-.9-.1-.5.9.3 1 .2 1.7-.3 1.7-1 0-1.4-2.3-.5-3.2.9-.8 3.4-.5 2.9.4zm-5.7 1.8c-.4 1.5 0 2 1.6 2.1 1.2 0 1.6.3.9.6-2.3.9-4.1-.5-3.5-2.6.3-1.2.8-2.1 1-2.1.3 0 .3.9 0 2zm-.7 4c1.8 1.2.2 1.2-2.5 0-1.3-.6-1.5-.9-.5-.9.8 0 2.2.4 3 .9zm3.3 3.4c.4 1 .1 1.3-.9.9-1.5-.6-1.9-2.3-.5-2.3.5 0 1.1.7 1.4 1.4z"/></svg>