<svg version="1" xmlns="http://www.w3.org/2000/svg" width="1365.333" height="1365.333" viewBox="0 0 1024.000000 1024.000000"><path d="M368.5 25c-6 .4-12.6 1.4-14.5 2.2-1.9.9-6.9 4.5-11.1 8.1-13.5 11.6-66.1 63.1-120.8 118.3-58.4 58.8-83.8 85.5-85.3 89.4-2.6 6.9-3 45.1-3.7 370.5l-.7 339 3.4 7.9c1.8 4.3 4.9 10.4 7 13.5 4.9 7.4 17.5 19.8 24.4 23.9 5.4 3.2 6.1 3.3 21.4 4.3 9.7.6 134.1 1.2 319.4 1.6l303.6.5 7.4-3.7c4.1-2 9.9-5.4 12.7-7.6 9.8-7.4 19.4-20.9 22.8-31.9 2.7-8.9 3.6-59.2 3.3-188.5l-.3-117-14.2 28-14.3 27.9-1 104.1c-1.1 110.1-1.9 133.3-4.6 139-2.2 4.8-8.9 12.2-13.8 15.3-4 2.6-4.5 2.6-27.6 3.3-44.9 1.3-360.2 2.1-476 1.1-116.3-.9-116.6-1-120.8-3.1-5.6-2.8-14-11.6-17.7-18.2-2.8-5.2-3-5.9-3.6-23.9-.4-10.2-.8-162.8-.8-339.1l-.1-320.6 22.7-.6c12.4-.4 34.6-.7 49.2-.7 37.2-.1 90.3-1.7 98.6-3 3.9-.6 9.4-2.2 12.2-3.5 7.1-3.2 18.6-14.8 25-25.2l5-8.3.7-49.7c.3-27.4.9-66.6 1.2-87.2l.7-37.3 210.1.5c120.8.4 213 1 217 1.5 8.5 1.2 14.2 4.8 17.4 11.3 3.2 6.6 4 21 4.7 94.9.5 61.8 1 76.6 2.5 79 .6.9 2.8.7 9.6-1 11.4-2.8 15-4.3 16.3-6.9 1.6-2.9 2.6-128.1 1.3-152-1-18.3-1.1-18.4-4.8-26-2.8-5.8-5.8-9.7-12.3-16.2-9.4-9.4-12.3-10.9-25.7-13.1-7.9-1.2-427.1-2-445.9-.8zm-21.7 96.5c.1 39.9-1.4 92.3-2.7 96.6-1.2 4-9.6 12.6-15 15.3-1.7.9-6.7 2.1-10.9 2.6-10.5 1.2-115.9 2.3-125.1 1.3l-7.3-.8 35.5-36.5c19.5-20.1 55.4-56.5 79.8-81l44.3-44.5.7 9.5c.4 5.2.7 22.1.7 37.5z"/><path d="M475 276v90H295v74h180v397h74V440h180v-74H549V186h-74v90zM900.2 223.1c-6.1 3-10.2 9-19.7 28.4-4.6 9.4-9.2 17.8-10.2 18.8-1.9 1.6-2.3 1.6-8.1-.8-8.8-3.6-11.7-3.3-16.1 1.3-2 2.1-8.2 12.6-13.8 23.3-19.2 36.6-86.2 176.1-106.8 222.7-6.5 14.6-7.2 16.7-6.4 20 1.1 5 5.9 9.2 10.5 9.2 8 0 7.9.2 29.3-43.3 10.9-22.1 29-59.1 40.1-82.2 36.5-75.7 56.6-115.1 60-117.5l3.1-2.2 5.2 2.2c8.4 3.6 37.8 17.6 71.6 33.9 17.2 8.4 31.5 15 31.8 14.7 1.1-1 28-58.3 30.2-64.1 4.2-11.1 2.1-20.9-6-27.9-5.9-5.1-60.9-32.1-75.2-37-6.7-2.3-14.3-2.1-19.5.5z"/><path d="M870.3 334.7c-2.5 1-8.9 13.4-40.6 79.3-17.9 37.1-36.8 76.5-42.1 87.5-5.3 11-14.1 28.3-19.4 38.4-8.4 16.1-10.3 19-14.7 22.4-6 4.8-13.5 8.4-20.1 9.6-3.7.7-5.6 1.8-7.7 4.3-4.1 4.8-49.9 99-64.7 132.7-3.1 7.2-3.2 7.5-1.4 8.9 5.9 4.4 107.5 53.6 108.5 52.5.3-.5 26.8-55 58.7-121.3 31.9-66.3 74.5-154.7 94.6-196.5 20.1-41.8 36.6-76.3 36.6-76.7 0-.4-8.4-4.8-18.7-9.9-45-21.8-66.1-31.9-66.9-31.8-.5 0-1.5.3-2.1.6zM643.6 751.2c-5 71.2-8.1 128.1-7.2 134.1.4 2.6 1.7 5.9 3 7.3 3.1 3.7 7 2.6 14.9-3.9 18.3-15.2 82.8-73.9 96-87.4 4.6-4.7 5.5-6.2 4.5-7-7.3-6.1-103.3-52.3-108.5-52.3-1.8 0-2.1.8-2.7 9.2z"/></svg>